<mxfile host="app.diagrams.net" modified="2024-03-12T08:13:22.219Z" agent="Mozilla/5.0 (Macintosh; Intel Mac OS X 10_15_7) AppleWebKit/537.36 (KHTML, like Gecko) Chrome/103.0.0.0 Safari/537.36" version="23.1.5" etag="ZWljLTIXHKMJJAjZldD2" type="github">
  <diagram name="第 1 页" id="4GC9Re9vAwxGPbqN0lid">
    <mxGraphModel>
      <root>
        <mxCell id="0" />
        <mxCell id="1" parent="0" />
      </root>
    </mxGraphModel>
  </diagram>
</mxfile>
